<svg width="99" height="98" viewBox="0 0 99 98" fill="none" xmlns="http://www.w3.org/2000/svg">
<g clip-path="url(#clip0_2_29)">
<path fill-rule="evenodd" clip-rule="evenodd" d="M10.5541 44.9082C8.76246 44.7843 6.01599 45.5606 5.16355 46.7992C1.5869 51.9878 10.6632 51.258 13.2138 51.373C11.5624 52.7663 5.25703 59.3395 4.88089 60.8965C4.45802 62.6393 4.45802 76.5354 4.41795 79.53C4.36454 83.5597 3.47204 92.7095 6.46112 95.0273H1.49342C0.672152 95.0273 0 95.6952 0 96.5136C0 97.3297 0.672152 97.9998 1.49342 97.9998H97.5044C98.3256 97.9998 98.9978 97.3319 98.9978 96.5136C98.9978 95.6952 98.3256 95.0273 97.5044 95.0273H92.5055C96.3003 91.9774 94.1102 76.3783 94.1948 70.8712C94.3662 60.7262 94.0457 57.8621 85.7684 51.373C88.4748 51.2491 96.6119 52.22 94.0145 47.1177C93.2311 45.5783 88.2567 43.6475 86.4183 45.7796C82.6948 50.1057 83.0931 45.4523 79.6901 40.5821C79.3229 39.8501 78.9868 39.1888 78.6574 38.5828C78.2657 39.0185 77.8205 39.3834 77.3198 39.6422L82.9752 50.5347C79.5254 50.5104 76.0511 50.3711 72.5613 50.2008C70.8631 51.9502 67.8985 52.9632 65.951 51.1253C65.6305 50.8444 64.7158 50.2538 64.2306 50.2937C63.6742 50.7448 62.6192 52.4877 62.7906 53.2109C62.8774 53.4431 62.9397 53.693 62.962 53.9496C63.2201 56.2608 61.1614 58.1275 59.1049 58.749C56.759 59.5894 53.6431 58.9679 52.7128 56.4156L52.6972 56.3847C52.557 55.9578 52.0161 54.9758 51.5465 54.8121C50.8566 54.9448 49.1517 55.9556 48.9402 56.6257C48.3371 59.2333 45.3013 60.1423 42.9243 59.6049C40.4137 59.1227 37.9877 57.0305 38.6287 54.299C38.7066 53.8633 38.7222 52.8216 38.4418 52.439C37.7296 52.2355 35.7264 52.1426 35.288 52.6336C33.4897 54.6794 30.2424 53.8235 28.4574 52.1979C27.8854 51.676 27.3846 51.008 27.0263 50.276C23.2471 50.4706 19.5458 50.5944 16.0026 50.5325C17.1377 47.6927 18.522 45.1183 20.0867 42.3559C20.376 41.8428 20.6342 41.3761 20.8701 40.9404C20.4316 40.4339 20.0867 39.8501 19.8374 39.2529C18.1948 41.7654 16.786 44.5278 16.027 46.014C13.5165 50.9306 13.9683 45.1581 10.5497 44.9082H10.5541ZM16.9062 95.0273C18.5421 93.8817 18.0947 91.4554 18.2127 88.6621C29.2208 87.899 69.8103 87.899 80.7695 88.6621C80.8875 91.378 80.4335 93.8595 82.0827 95.0273H16.9062ZM26.7325 13.9821C27.8899 15.0636 27.7563 17.9256 27.4136 18.8058C26.9284 19.6308 25.426 19.9647 23.8614 19.6927C22.3502 19.3587 20.7165 20.7809 20.2937 22.9594C19.8151 25.0052 20.6453 26.967 22.1476 27.3076C23.7835 27.6504 24.9475 30.3022 25.0188 31.1891C25.1523 32.0671 24.0639 33.2283 22.5549 33.6308C20.9903 34.1837 20.3649 36.2848 20.9903 38.3218C21.6001 40.3676 23.4385 41.6592 24.9498 41.1859C26.3809 40.6418 28.0323 40.9139 28.4396 41.73C28.9159 42.4068 29.4567 45.2621 28.3684 46.4829C27.4136 47.6418 27.8298 49.743 29.4011 51.1739C30.9657 52.6049 33.227 52.8769 34.2508 51.718C35.2769 50.5657 38.148 50.8377 39.0382 51.1739C39.8595 51.5167 40.2735 53.087 39.9931 54.5733C39.5858 56.2077 41.0191 57.8399 43.2091 58.2447C45.2679 58.718 47.2532 57.8399 47.5915 56.2763C48.0055 54.7834 50.6028 53.4918 51.4864 53.421C52.3789 53.3524 53.5452 54.5025 54.0215 55.9423C54.569 57.4352 56.6188 58.1739 58.6687 57.4352C60.7185 56.8204 62.0161 55.0466 61.4685 53.6222C60.9922 52.0586 62.7038 49.67 63.4561 49.1325C64.1371 48.5884 65.7173 49.0617 66.8747 50.0813C68.032 51.1695 70.1531 50.7647 71.6554 49.1325C73.0331 47.4981 73.3069 45.3903 72.1473 44.3088C70.9744 43.2118 71.2481 40.3654 71.6554 39.5404C72.0071 38.7309 73.5094 38.3196 75.0117 38.6602C76.6543 39.003 78.2991 37.5079 78.713 35.4621C79.1893 33.2835 78.2991 31.324 76.7188 30.9812C75.2254 30.7003 73.9879 28.0551 73.8477 27.1682C73.7854 26.2106 74.9427 25.1998 76.3828 24.6469C77.9541 24.1714 78.644 22.1256 77.9541 20.0952C77.2663 17.9786 75.4969 16.7666 74.0592 17.2399C72.5568 17.6447 70.093 16.0191 69.5455 15.3268C69.0047 14.5174 69.4832 13.0245 70.5715 11.8655C71.6577 10.7132 71.1814 8.52809 69.5455 7.10377C67.9653 5.6728 65.7908 5.4074 64.6869 6.55084C63.6608 7.71862 60.7207 7.58591 59.9773 7.17233C59.1472 6.82288 58.6709 5.19508 59.007 3.69555C59.4209 2.2093 57.8496 0.568221 55.7998 0.0927073C53.6876 -0.312032 51.7001 0.497447 51.2861 2.06775C51.0123 3.63141 48.3438 4.86111 47.4602 4.92304C46.561 4.92304 45.4727 3.9123 44.9251 2.33978C44.4399 0.846894 42.399 0.232044 40.3403 0.846894C38.2837 1.46174 36.9929 3.22004 37.4691 4.79255C37.8764 6.28544 36.3118 8.59666 35.4816 9.14073C34.7316 9.69366 33.2292 9.27343 32.063 8.19192C30.9056 7.17233 28.7156 7.64784 27.2823 9.14073C25.8423 10.7752 25.5618 13.0222 26.7347 13.9711L26.7325 13.9821ZM44.164 12.9006C53.2625 10.0365 62.9175 15.0017 65.7886 23.9082C68.7309 32.9496 63.801 42.5417 54.7025 45.4678C45.7442 48.323 36.0358 43.4219 33.1647 34.3894C30.2847 25.4807 35.2056 15.7404 44.164 12.9006ZM32.4213 74.0229C32.4213 77.0728 34.9341 79.561 37.9922 79.561H61.0101C64.0681 79.561 66.5809 77.0706 66.5809 74.0229V70.2033C66.5809 67.16 64.0704 64.663 61.0101 64.663H37.9922C34.9341 64.663 32.4213 67.16 32.4213 70.2033V74.0229ZM25.3326 74.0384C26.6079 73.439 27.9077 71.9771 28.3751 70.7628C24.9409 68.748 12.1722 67.8523 8.25278 68.6219C6.48338 78.9461 21.7337 75.7414 25.3326 74.0362V74.0384ZM70.6227 70.7628C71.0923 71.9771 72.3899 73.439 73.6652 74.0384C77.2641 75.7414 92.5122 78.9483 90.745 68.6241C86.8256 67.8545 74.0569 68.748 70.6227 70.7651V70.7628Z" fill="#846CF9"/>
<path fill-rule="evenodd" clip-rule="evenodd" d="M54.7025 31.0123C54.5846 30.8951 54.4355 30.8332 54.2708 30.8332C54.1061 30.8332 53.9592 30.8951 53.8412 31.0123L53.3093 31.5343C52.4413 30.6629 51.6979 29.9396 50.9768 29.2231L53.5341 26.6708L54.6068 25.6047C56.1247 26.2129 57.8763 25.8613 59.0359 24.7112C60.0842 23.6761 60.4826 22.1523 60.0842 20.7368L59.9662 20.3321L57.1886 23.1011L54.8717 20.7987L57.6493 18.0297L57.2509 17.9213C55.8265 17.5254 54.293 17.9213 53.2447 18.9564C52.0941 20.1087 51.7424 21.8581 52.3522 23.3599L51.2817 24.4325L48.7066 26.9848C47.4157 25.7175 45.86 24.176 43.543 21.8736C43.543 21.8736 43.543 21.8648 43.5341 21.8581L42.4235 19.9671C42.4079 19.9362 42.3835 19.9052 42.3523 19.8809L40.4738 18.5893C40.3715 18.5185 40.2312 18.534 40.1444 18.6202L39.3076 19.4518C39.2141 19.5381 39.2052 19.6774 39.2764 19.7791L40.574 21.6458C40.5985 21.6768 40.6296 21.7011 40.6608 21.7232L42.5615 22.8291H42.5771C44.8139 25.054 46.403 26.6332 47.7406 27.9491L45.1655 30.5014L44.0928 31.5674C42.5838 30.9614 40.8233 31.3109 39.6659 32.461C38.6243 33.496 38.2259 35.0199 38.6243 36.4376L38.7334 36.8423L41.5177 34.0733L43.8346 36.3757L41.0503 39.1447L41.4576 39.2531C42.882 39.649 44.4155 39.2531 45.4549 38.218C46.6122 37.0657 46.9639 35.3163 46.3541 33.8145L47.4268 32.7396L49.9997 30.1807C50.7586 30.9283 51.502 31.6581 52.3389 32.4986L51.8158 33.0205C51.6979 33.1378 51.6356 33.2859 51.6356 33.4496C51.6356 33.6133 51.6979 33.7614 51.8158 33.8765L57.7139 39.7419C57.8296 39.8591 57.9809 39.921 58.1434 39.921C58.3059 39.921 58.455 39.8591 58.573 39.7419L60.5917 37.7336C60.7074 37.6164 60.7697 37.4682 60.7697 37.3068C60.7697 37.1453 60.7074 36.9949 60.5917 36.8799L54.6914 31.0145L54.7025 31.0123ZM57.7139 38.4281L53.1446 33.8853L53.6298 33.4098L58.1902 37.946L57.7139 38.4281ZM58.7933 37.3466L54.2329 32.8104L54.7092 32.3283L59.2785 36.8711L58.7933 37.3466Z" fill="#846CF9"/>
</g>
<defs>
<clipPath id="clip0_2_29">
<rect width="99" height="98" fill="white"/>
</clipPath>
</defs>
</svg>
